<svg width="48" height="48" viewBox="0 0 48 48" fill="none" xmlns="http://www.w3.org/2000/svg">
<path d="M42.6375 40.0547L30.4641 27.8812C32.3531 25.4391 33.375 22.4531 33.375 19.3125C33.375 15.5531 31.9078 12.0281 29.2547 9.37031C26.6016 6.7125 23.0672 5.25 19.3125 5.25C15.5578 5.25 12.0234 6.71719 9.37031 9.37031C6.7125 12.0234 5.25 15.5531 5.25 19.3125C5.25 23.0672 6.71719 26.6016 9.37031 29.2547C12.0234 31.9125 15.5531 33.375 19.3125 33.375C22.4531 33.375 25.4344 32.3531 27.8766 30.4688L40.05 42.6375C40.0857 42.6732 40.1281 42.7015 40.1747 42.7209C40.2214 42.7402 40.2714 42.7502 40.3219 42.7502C40.3724 42.7502 40.4224 42.7402 40.469 42.7209C40.5157 42.7015 40.5581 42.6732 40.5938 42.6375L42.6375 40.5984C42.6732 40.5627 42.7015 40.5204 42.7209 40.4737C42.7402 40.4271 42.7502 40.3771 42.7502 40.3266C42.7502 40.2761 42.7402 40.2261 42.7209 40.1794C42.7015 40.1328 42.6732 40.0904 42.6375 40.0547V40.0547ZM26.7375 26.7375C24.75 28.7203 22.1156 29.8125 19.3125 29.8125C16.5094 29.8125 13.875 28.7203 11.8875 26.7375C9.90469 24.75 8.8125 22.1156 8.8125 19.3125C8.8125 16.5094 9.90469 13.8703 11.8875 11.8875C13.875 9.90469 16.5094 8.8125 19.3125 8.8125C22.1156 8.8125 24.7547 9.9 26.7375 11.8875C28.7203 13.875 29.8125 16.5094 29.8125 19.3125C29.8125 22.1156 28.7203 24.7547 26.7375 26.7375Z" fill="#383838"/>
</svg>
